<svg width="242" height="219" viewBox="0 0 242 219" fill="none" xmlns="http://www.w3.org/2000/svg">
<rect width="242" height="219" rx="5" fill="white"/>
<rect x="17" y="127" width="90" height="78" rx="5" fill="#F25F3A"/>
<path d="M27.7773 185.041H31.3027V187.59H27.7773V191.574H25.0918V187.59H21.5566V185.041H25.0918V181.223H27.7773V185.041ZM39.7402 193H36.918V182.121L33.5488 183.166V180.871L39.4375 178.762H39.7402V193ZM44.6328 191.613C44.6328 191.164 44.7826 190.799 45.082 190.52C45.388 190.24 45.7689 190.1 46.2246 190.1C46.6868 190.1 47.0677 190.24 47.3672 190.52C47.6732 190.799 47.8262 191.164 47.8262 191.613C47.8262 192.056 47.6764 192.417 47.377 192.697C47.0775 192.971 46.6934 193.107 46.2246 193.107C45.7624 193.107 45.3815 192.971 45.082 192.697C44.7826 192.417 44.6328 192.056 44.6328 191.613ZM50.6094 186.008L51.4297 178.781H59.3984V181.135H53.7441L53.3926 184.191C54.0632 183.833 54.776 183.654 55.5312 183.654C56.8854 183.654 57.9466 184.074 58.7148 184.914C59.4831 185.754 59.8672 186.929 59.8672 188.439C59.8672 189.357 59.6719 190.181 59.2812 190.91C58.8971 191.633 58.3438 192.196 57.6211 192.6C56.8984 192.997 56.0456 193.195 55.0625 193.195C54.2031 193.195 53.4056 193.023 52.6699 192.678C51.9342 192.326 51.3516 191.835 50.9219 191.203C50.4987 190.572 50.2741 189.852 50.248 189.045H53.041C53.0996 189.637 53.3047 190.1 53.6562 190.432C54.0143 190.757 54.4798 190.92 55.0527 190.92C55.6908 190.92 56.1823 190.692 56.5273 190.236C56.8724 189.774 57.0449 189.123 57.0449 188.283C57.0449 187.476 56.8464 186.857 56.4492 186.428C56.0521 185.998 55.4889 185.783 54.7598 185.783C54.0892 185.783 53.5456 185.959 53.1289 186.311L52.8555 186.564L50.6094 186.008ZM61.6348 181.516C61.6348 180.643 61.918 179.937 62.4844 179.396C63.0508 178.85 63.793 178.576 64.7109 178.576C65.6419 178.576 66.3906 178.846 66.957 179.387C67.5234 179.921 67.8066 180.646 67.8066 181.564V182.268C67.8066 183.146 67.5234 183.853 66.957 184.387C66.3906 184.921 65.6484 185.188 64.7305 185.188C63.806 185.188 63.0573 184.921 62.4844 184.387C61.918 183.846 61.6348 183.12 61.6348 182.209V181.516ZM63.5098 182.268C63.5098 182.658 63.6204 182.974 63.8418 183.215C64.0697 183.449 64.3659 183.566 64.7305 183.566C65.0951 183.566 65.3848 183.446 65.5996 183.205C65.8145 182.964 65.9219 182.642 65.9219 182.238V181.516C65.9219 181.125 65.8145 180.809 65.5996 180.568C65.3848 180.327 65.0885 180.207 64.7109 180.207C64.3529 180.207 64.0632 180.327 63.8418 180.568C63.6204 180.803 63.5098 181.132 63.5098 181.555V182.268ZM68.4316 189.514C68.4316 188.635 68.7181 187.928 69.291 187.395C69.8639 186.854 70.6061 186.584 71.5176 186.584C72.4421 186.584 73.1875 186.851 73.7539 187.385C74.3268 187.912 74.6133 188.641 74.6133 189.572V190.275C74.6133 191.148 74.3333 191.854 73.7734 192.395C73.2135 192.928 72.4681 193.195 71.5371 193.195C70.5996 193.195 69.8477 192.925 69.2812 192.385C68.7148 191.844 68.4316 191.128 68.4316 190.236V189.514ZM70.3066 190.275C70.3066 190.633 70.4238 190.939 70.6582 191.193C70.8926 191.447 71.1855 191.574 71.5371 191.574C72.3314 191.574 72.7285 191.135 72.7285 190.256V189.514C72.7285 189.123 72.6178 188.811 72.3965 188.576C72.1751 188.335 71.8822 188.215 71.5176 188.215C71.153 188.215 70.86 188.335 70.6387 188.576C70.4173 188.811 70.3066 189.133 70.3066 189.543V190.275ZM65.2871 191.936L63.9102 191.193L70.8535 180.08L72.2305 180.822L65.2871 191.936Z" fill="white"/>
<rect x="130" y="127" width="90" height="78" rx="5" fill="#F9F9F9"/>
<path d="M144.234 180.561C144.234 181.251 144.062 181.863 143.717 182.396C143.372 182.93 142.896 183.357 142.291 183.676C142.981 184.008 143.528 184.467 143.932 185.053C144.335 185.632 144.537 186.316 144.537 187.104C144.537 188.367 144.107 189.366 143.248 190.102C142.389 190.831 141.22 191.195 139.742 191.195C138.264 191.195 137.092 190.827 136.227 190.092C135.361 189.356 134.928 188.36 134.928 187.104C134.928 186.316 135.13 185.629 135.533 185.043C135.937 184.457 136.48 184.001 137.164 183.676C136.559 183.357 136.083 182.93 135.738 182.396C135.4 181.863 135.23 181.251 135.23 180.561C135.23 179.35 135.634 178.386 136.441 177.67C137.249 176.947 138.346 176.586 139.732 176.586C141.113 176.586 142.206 176.944 143.014 177.66C143.827 178.37 144.234 179.337 144.234 180.561ZM141.705 186.898C141.705 186.28 141.526 185.785 141.168 185.414C140.81 185.043 140.328 184.857 139.723 184.857C139.124 184.857 138.645 185.043 138.287 185.414C137.929 185.779 137.75 186.273 137.75 186.898C137.75 187.504 137.926 187.992 138.277 188.363C138.629 188.734 139.117 188.92 139.742 188.92C140.354 188.92 140.833 188.741 141.178 188.383C141.529 188.025 141.705 187.53 141.705 186.898ZM141.412 180.697C141.412 180.144 141.266 179.701 140.973 179.369C140.68 179.031 140.266 178.861 139.732 178.861C139.205 178.861 138.795 179.024 138.502 179.35C138.209 179.675 138.062 180.124 138.062 180.697C138.062 181.264 138.209 181.719 138.502 182.064C138.795 182.41 139.208 182.582 139.742 182.582C140.276 182.582 140.686 182.41 140.973 182.064C141.266 181.719 141.412 181.264 141.412 180.697ZM155.719 180.561C155.719 181.251 155.546 181.863 155.201 182.396C154.856 182.93 154.381 183.357 153.775 183.676C154.465 184.008 155.012 184.467 155.416 185.053C155.82 185.632 156.021 186.316 156.021 187.104C156.021 188.367 155.592 189.366 154.732 190.102C153.873 190.831 152.704 191.195 151.227 191.195C149.749 191.195 148.577 190.827 147.711 190.092C146.845 189.356 146.412 188.36 146.412 187.104C146.412 186.316 146.614 185.629 147.018 185.043C147.421 184.457 147.965 184.001 148.648 183.676C148.043 183.357 147.568 182.93 147.223 182.396C146.884 181.863 146.715 181.251 146.715 180.561C146.715 179.35 147.118 178.386 147.926 177.67C148.733 176.947 149.83 176.586 151.217 176.586C152.597 176.586 153.691 176.944 154.498 177.66C155.312 178.37 155.719 179.337 155.719 180.561ZM153.189 186.898C153.189 186.28 153.01 185.785 152.652 185.414C152.294 185.043 151.812 184.857 151.207 184.857C150.608 184.857 150.13 185.043 149.771 185.414C149.413 185.779 149.234 186.273 149.234 186.898C149.234 187.504 149.41 187.992 149.762 188.363C150.113 188.734 150.602 188.92 151.227 188.92C151.839 188.92 152.317 188.741 152.662 188.383C153.014 188.025 153.189 187.53 153.189 186.898ZM152.896 180.697C152.896 180.144 152.75 179.701 152.457 179.369C152.164 179.031 151.751 178.861 151.217 178.861C150.689 178.861 150.279 179.024 149.986 179.35C149.693 179.675 149.547 180.124 149.547 180.697C149.547 181.264 149.693 181.719 149.986 182.064C150.279 182.41 150.693 182.582 151.227 182.582C151.76 182.582 152.171 182.41 152.457 182.064C152.75 181.719 152.896 181.264 152.896 180.697ZM158.199 189.613C158.199 189.164 158.349 188.799 158.648 188.52C158.954 188.24 159.335 188.1 159.791 188.1C160.253 188.1 160.634 188.24 160.934 188.52C161.24 188.799 161.393 189.164 161.393 189.613C161.393 190.056 161.243 190.417 160.943 190.697C160.644 190.971 160.26 191.107 159.791 191.107C159.329 191.107 158.948 190.971 158.648 190.697C158.349 190.417 158.199 190.056 158.199 189.613ZM173.502 191H163.756V189.066L168.355 184.164C168.987 183.474 169.452 182.872 169.752 182.357C170.058 181.843 170.211 181.355 170.211 180.893C170.211 180.261 170.051 179.766 169.732 179.408C169.413 179.044 168.958 178.861 168.365 178.861C167.727 178.861 167.223 179.083 166.852 179.525C166.487 179.962 166.305 180.538 166.305 181.254H163.473C163.473 180.388 163.678 179.597 164.088 178.881C164.505 178.165 165.09 177.605 165.846 177.201C166.601 176.791 167.457 176.586 168.414 176.586C169.879 176.586 171.015 176.938 171.822 177.641C172.636 178.344 173.043 179.337 173.043 180.619C173.043 181.322 172.861 182.038 172.496 182.768C172.132 183.497 171.507 184.346 170.621 185.316L167.389 188.725H173.502V191ZM183.59 185.648H185.201V187.924H183.59V191H180.768V187.924H174.938L174.811 186.146L180.738 176.781H183.59V185.648ZM177.623 185.648H180.768V180.629L180.582 180.951L177.623 185.648ZM186.686 179.516C186.686 178.643 186.969 177.937 187.535 177.396C188.102 176.85 188.844 176.576 189.762 176.576C190.693 176.576 191.441 176.846 192.008 177.387C192.574 177.921 192.857 178.646 192.857 179.564V180.268C192.857 181.146 192.574 181.853 192.008 182.387C191.441 182.921 190.699 183.188 189.781 183.188C188.857 183.188 188.108 182.921 187.535 182.387C186.969 181.846 186.686 181.12 186.686 180.209V179.516ZM188.561 180.268C188.561 180.658 188.671 180.974 188.893 181.215C189.12 181.449 189.417 181.566 189.781 181.566C190.146 181.566 190.436 181.446 190.65 181.205C190.865 180.964 190.973 180.642 190.973 180.238V179.516C190.973 179.125 190.865 178.809 190.65 178.568C190.436 178.327 190.139 178.207 189.762 178.207C189.404 178.207 189.114 178.327 188.893 178.568C188.671 178.803 188.561 179.132 188.561 179.555V180.268ZM193.482 187.514C193.482 186.635 193.769 185.928 194.342 185.395C194.915 184.854 195.657 184.584 196.568 184.584C197.493 184.584 198.238 184.851 198.805 185.385C199.378 185.912 199.664 186.641 199.664 187.572V188.275C199.664 189.148 199.384 189.854 198.824 190.395C198.264 190.928 197.519 191.195 196.588 191.195C195.65 191.195 194.898 190.925 194.332 190.385C193.766 189.844 193.482 189.128 193.482 188.236V187.514ZM195.357 188.275C195.357 188.633 195.475 188.939 195.709 189.193C195.943 189.447 196.236 189.574 196.588 189.574C197.382 189.574 197.779 189.135 197.779 188.256V187.514C197.779 187.123 197.669 186.811 197.447 186.576C197.226 186.335 196.933 186.215 196.568 186.215C196.204 186.215 195.911 186.335 195.689 186.576C195.468 186.811 195.357 187.133 195.357 187.543V188.275ZM190.338 189.936L188.961 189.193L195.904 178.08L197.281 178.822L190.338 189.936Z" fill="#242D52"/>
<rect x="17" y="19" width="203" height="96" rx="5" fill="#F9F9F9"/>
<path d="M41.3516 83.3408C41.3516 84.376 41.0928 85.2939 40.5752 86.0947C40.0576 86.8955 39.3447 87.5352 38.4365 88.0137C39.4717 88.5117 40.292 89.2002 40.8975 90.0791C41.5029 90.9482 41.8057 91.9736 41.8057 93.1553C41.8057 95.0498 41.1611 96.5488 39.8721 97.6523C38.583 98.7461 36.8301 99.293 34.6133 99.293C32.3965 99.293 30.6387 98.7412 29.3398 97.6377C28.041 96.5342 27.3916 95.04 27.3916 93.1553C27.3916 91.9736 27.6943 90.9434 28.2998 90.0645C28.9053 89.1855 29.7207 88.502 30.7461 88.0137C29.8379 87.5352 29.125 86.8955 28.6074 86.0947C28.0996 85.2939 27.8457 84.376 27.8457 83.3408C27.8457 81.5244 28.4512 80.0791 29.6621 79.0049C30.873 77.9209 32.5186 77.3789 34.5986 77.3789C36.6689 77.3789 38.3096 77.916 39.5205 78.9902C40.7412 80.0547 41.3516 81.5049 41.3516 83.3408ZM37.5576 92.8477C37.5576 91.9199 37.2891 91.1777 36.752 90.6211C36.2148 90.0645 35.4922 89.7861 34.584 89.7861C33.6855 89.7861 32.9678 90.0645 32.4307 90.6211C31.8936 91.168 31.625 91.9102 31.625 92.8477C31.625 93.7559 31.8887 94.4883 32.416 95.0449C32.9434 95.6016 33.6758 95.8799 34.6133 95.8799C35.5312 95.8799 36.249 95.6113 36.7666 95.0742C37.2939 94.5371 37.5576 93.7949 37.5576 92.8477ZM37.1182 83.5459C37.1182 82.7158 36.8984 82.0518 36.459 81.5537C36.0195 81.0459 35.3994 80.792 34.5986 80.792C33.8076 80.792 33.1924 81.0361 32.7529 81.5244C32.3135 82.0127 32.0938 82.6865 32.0938 83.5459C32.0938 84.3955 32.3135 85.0791 32.7529 85.5967C33.1924 86.1143 33.8125 86.373 34.6133 86.373C35.4141 86.373 36.0293 86.1143 36.459 85.5967C36.8984 85.0791 37.1182 84.3955 37.1182 83.5459ZM54.5791 90.4746C53.4756 91.5586 52.1865 92.1006 50.7119 92.1006C48.8271 92.1006 47.3184 91.4561 46.1855 90.167C45.0527 88.8682 44.4863 87.1201 44.4863 84.9229C44.4863 83.5264 44.7891 82.2471 45.3945 81.085C46.0098 79.9131 46.8643 79.0049 47.958 78.3604C49.0518 77.7061 50.2822 77.3789 51.6494 77.3789C53.0557 77.3789 54.3057 77.7305 55.3994 78.4336C56.4932 79.1367 57.3428 80.1475 57.9482 81.4658C58.5537 82.7842 58.8613 84.293 58.8711 85.9922V87.5596C58.8711 91.1143 57.9873 93.9072 56.2197 95.9385C54.4521 97.9697 51.9473 99.0537 48.7051 99.1904L47.665 99.2051V95.6748L48.6025 95.6602C52.2842 95.4941 54.2764 93.7656 54.5791 90.4746ZM51.752 88.8633C52.4355 88.8633 53.0215 88.6875 53.5098 88.3359C54.0078 87.9844 54.3838 87.5596 54.6377 87.0615V85.3184C54.6377 83.8828 54.3643 82.7695 53.8174 81.9785C53.2705 81.1875 52.5381 80.792 51.6201 80.792C50.7705 80.792 50.0723 81.1826 49.5254 81.9639C48.9785 82.7354 48.7051 83.707 48.7051 84.8789C48.7051 86.041 48.9688 86.998 49.4961 87.75C50.0332 88.4922 50.7852 88.8633 51.752 88.8633ZM62.2988 96.9199C62.2988 96.2461 62.5234 95.6992 62.9727 95.2793C63.4316 94.8594 64.0029 94.6494 64.6865 94.6494C65.3799 94.6494 65.9512 94.8594 66.4004 95.2793C66.8594 95.6992 67.0889 96.2461 67.0889 96.9199C67.0889 97.584 66.8643 98.126 66.415 98.5459C65.9658 98.9561 65.3896 99.1611 64.6865 99.1611C63.9932 99.1611 63.4219 98.9561 62.9727 98.5459C62.5234 98.126 62.2988 97.584 62.2988 96.9199ZM85.1357 80.0449L76.8887 99H72.4209L80.6826 81.0996H70.0771V77.6719H85.1357V80.0449ZM100.385 90.9727H102.802V94.3857H100.385V99H96.1514V94.3857H87.4062L87.2158 91.7197L96.1074 77.6719H100.385V90.9727ZM91.4346 90.9727H96.1514V83.4434L95.873 83.9268L91.4346 90.9727ZM105.028 81.7734C105.028 80.4648 105.453 79.4053 106.303 78.5947C107.152 77.7744 108.266 77.3643 109.643 77.3643C111.039 77.3643 112.162 77.7695 113.012 78.5801C113.861 79.3809 114.286 80.4697 114.286 81.8467V82.9014C114.286 84.2197 113.861 85.2793 113.012 86.0801C112.162 86.8809 111.049 87.2812 109.672 87.2812C108.285 87.2812 107.162 86.8809 106.303 86.0801C105.453 85.2695 105.028 84.1807 105.028 82.8135V81.7734ZM107.841 82.9014C107.841 83.4873 108.007 83.9609 108.339 84.3223C108.681 84.6738 109.125 84.8496 109.672 84.8496C110.219 84.8496 110.653 84.6689 110.976 84.3076C111.298 83.9463 111.459 83.4629 111.459 82.8574V81.7734C111.459 81.1875 111.298 80.7139 110.976 80.3525C110.653 79.9912 110.209 79.8105 109.643 79.8105C109.105 79.8105 108.671 79.9912 108.339 80.3525C108.007 80.7041 107.841 81.1973 107.841 81.832V82.9014ZM115.224 93.7705C115.224 92.4521 115.653 91.3926 116.513 90.5918C117.372 89.7812 118.485 89.376 119.853 89.376C121.239 89.376 122.357 89.7764 123.207 90.5771C124.066 91.3682 124.496 92.4619 124.496 93.8584V94.9131C124.496 96.2217 124.076 97.2812 123.236 98.0918C122.396 98.8926 121.278 99.293 119.882 99.293C118.476 99.293 117.348 98.8877 116.498 98.0771C115.648 97.2666 115.224 96.1924 115.224 94.8545V93.7705ZM118.036 94.9131C118.036 95.4502 118.212 95.9092 118.563 96.29C118.915 96.6709 119.354 96.8613 119.882 96.8613C121.073 96.8613 121.669 96.2021 121.669 94.8838V93.7705C121.669 93.1846 121.503 92.7158 121.171 92.3643C120.839 92.0029 120.399 91.8223 119.853 91.8223C119.306 91.8223 118.866 92.0029 118.534 92.3643C118.202 92.7158 118.036 93.1992 118.036 93.8145V94.9131ZM110.507 97.4033L108.441 96.29L118.856 79.6201L120.922 80.7334L110.507 97.4033Z" fill="#242D52"/>
</svg>
