<svg width="242" height="219" viewBox="0 0 242 219" fill="none" xmlns="http://www.w3.org/2000/svg">
<rect width="242" height="219" fill="white"/>
<path d="M36.0931 95.1046C33.9348 107.333 34.3169 119.869 37.2137 131.865C40.1105 143.861 45.4546 155.04 52.8855 164.646C60.3164 174.252 69.6613 182.063 80.2896 187.551C90.9178 193.04 102.582 196.078 114.496 196.461L115.875 163.343C108.511 163.106 101.302 161.228 94.7324 157.836C88.1631 154.444 82.3872 149.616 77.7942 143.679C73.2013 137.741 69.8981 130.832 68.1076 123.417C66.3171 116.002 66.0809 108.254 67.415 100.696L36.0931 95.1046Z" fill="#F25F3A"/>
<path d="M118.408 196.732C134.973 197.165 151.313 192.796 165.477 184.146C179.641 175.496 191.031 162.931 198.289 147.949C205.547 132.968 208.365 116.203 206.408 99.6543C204.451 83.1062 197.801 67.4736 187.252 54.6219C176.703 41.7701 162.699 32.2419 146.913 27.1742C131.127 22.1064 114.224 21.713 98.2212 26.041C82.2186 30.369 67.7921 39.2355 56.6629 51.5827C45.5337 63.9299 38.1718 79.2364 35.4557 95.6758L67.9923 101.113C69.6711 90.9515 74.2214 81.4907 81.1002 73.859C87.9791 66.2273 96.896 60.7469 106.787 58.0718C116.678 55.3968 127.126 55.6399 136.883 58.7723C146.64 61.9046 155.296 67.7939 161.816 75.7374C168.336 83.681 172.447 93.3433 173.656 103.572C174.866 113.8 173.124 124.162 168.638 133.422C164.152 142.682 157.112 150.449 148.357 155.795C139.603 161.141 129.503 163.842 119.264 163.575L118.408 196.732Z" fill="#242D52"/>
</svg>
