<svg width="243" height="219" viewBox="0 0 243 219" fill="none" xmlns="http://www.w3.org/2000/svg">
<rect width="243" height="219" fill="white"/>
<rect x="17.3343" y="17.1029" width="208.331" height="185.168" fill="#F9F9F9" stroke="#E5E5E5"/>
<line x1="17.5322" y1="25.1475" x2="226.166" y2="25.1475" stroke="#E5E5E5"/>
<line x1="17.5321" y1="41.7293" x2="226.166" y2="41.7293" stroke="#E5E5E5"/>
<line x1="17.5321" y1="58.3111" x2="226.166" y2="58.3111" stroke="#E5E5E5"/>
<line x1="17.5321" y1="74.8929" x2="226.166" y2="74.8929" stroke="#E5E5E5"/>
<line x1="17.5321" y1="91.4747" x2="226.166" y2="91.4747" stroke="#E5E5E5"/>
<line x1="17.5321" y1="108.057" x2="226.166" y2="108.057" stroke="#E5E5E5"/>
<line x1="17.5321" y1="124.638" x2="226.166" y2="124.638" stroke="#E5E5E5"/>
<line x1="17.5321" y1="141.22" x2="226.166" y2="141.22" stroke="#E5E5E5"/>
<line x1="17.5321" y1="157.802" x2="226.166" y2="157.802" stroke="#E5E5E5"/>
<line x1="17.5321" y1="174.384" x2="226.166" y2="174.384" stroke="#E5E5E5"/>
<line x1="17.5321" y1="190.966" x2="226.166" y2="190.966" stroke="#E5E5E5"/>
<rect x="29.2771" y="140.126" width="27.0813" height="20.556" fill="#242D52"/>
<rect x="29.2771" y="106.92" width="27.0813" height="41.1119" rx="5" fill="#F25F3A"/>
<rect x="187.373" y="145.66" width="27.0813" height="24.509" fill="#242D52"/>
<rect x="187.373" y="106.129" width="27.0813" height="49.0181" rx="5" fill="#F25F3A"/>
<rect x="68.8012" y="99.0138" width="27.0813" height="59.296" fill="#242D52"/>
<rect x="68.8012" y="75.2954" width="27.0813" height="31.6245" rx="5" fill="#F25F3A"/>
<rect x="108.325" y="130.638" width="27.0813" height="59.296" fill="#F25F3A"/>
<rect x="108.325" y="106.92" width="27.0813" height="31.6245" rx="5" fill="#242D52"/>
<rect x="147.849" y="50.7864" width="27.0813" height="59.296" fill="#F25F3A"/>
<rect x="147.849" y="37.346" width="27.0813" height="15.0217" rx="5" fill="#242D52"/>
</svg>
